<svg width="24" height="24" viewBox="0 0 24 24" fill="none" xmlns="http://www.w3.org/2000/svg">
<path fill-rule="evenodd" clip-rule="evenodd" d="M12.4756 1.44574L15.8216 8.07474L22.2617 8.71274C22.5747 8.73876 22.844 8.9445 22.9515 9.2397C23.0589 9.5349 22.9848 9.86561 22.7617 10.0867L17.4616 15.3397L19.4266 22.4777C19.5088 22.787 19.4019 23.1157 19.1535 23.3174C18.9051 23.5192 18.5615 23.5565 18.2757 23.4127L11.7466 20.1797L5.22665 23.4087C4.94078 23.5525 4.59717 23.5152 4.34881 23.3134C4.10045 23.1117 3.99353 22.783 4.07565 22.4737L6.04065 15.3357L0.736649 10.0827C0.51353 9.86161 0.439423 9.5309 0.546845 9.2357C0.654268 8.9405 0.923593 8.73476 1.23665 8.70874L7.67665 8.07074L11.0176 1.44574C11.1577 1.17213 11.4393 1 11.7466 1C12.054 1 12.3356 1.17213 12.4756 1.44574Z" stroke="#003368" stroke-linecap="round" stroke-linejoin="round"/>
</svg>
