<svg width="16" height="16" viewBox="0 0 16 16" fill="none" xmlns="http://www.w3.org/2000/svg">
<path d="M7 15H3V16H7V15Z" fill="#007EC3"/>
<path d="M7 13H3V14H7V13Z" fill="#007EC3"/>
<path d="M4.98681 2.66663L0 10.0087H3V12L7 11.9912V9.99996L10 10.0087L4.98681 2.66663Z" fill="#007EC3"/>
<path d="M6.87658 3.2758C7.54127 2.89973 8.30928 2.68481 9.12974 2.68481C11.661 2.68481 13.7131 4.73684 13.7131 7.26815C13.7131 8.60955 13.1368 9.81636 12.2184 10.6545L11.2233 11.3465C10.5958 11.6693 9.88403 11.8515 9.12974 11.8515C8.79123 11.8515 8.46212 11.8149 8.14585 11.7458L7.82557 13.2112C8.24638 13.3032 8.68285 13.3515 9.12974 13.3515C10.1765 13.3515 11.1616 13.0871 12.0217 12.6214L14.0715 15.5691L15.303 14.7127L13.2429 11.7502C14.454 10.6383 15.2131 9.04185 15.2131 7.26815C15.2131 3.90842 12.4895 1.18481 9.12974 1.18481C8.04371 1.18481 7.02204 1.47007 6.13794 1.97027L6.87658 3.2758Z" fill="#007EC3"/>
</svg>
