<svg width="23" height="23" viewBox="0 0 23 23" fill="none" xmlns="http://www.w3.org/2000/svg">
<path fill-rule="evenodd" clip-rule="evenodd" d="M12.4756 0.445744L15.8216 7.07474L22.2617 7.71274C22.5747 7.73876 22.844 7.9445 22.9515 8.2397C23.0589 8.5349 22.9848 8.86561 22.7617 9.08674L17.4616 14.3397L19.4266 21.4777C19.5088 21.787 19.4019 22.1157 19.1535 22.3174C18.9051 22.5192 18.5615 22.5565 18.2757 22.4127L11.7466 19.1797L5.22665 22.4087C4.94078 22.5525 4.59717 22.5152 4.34881 22.3134C4.10045 22.1117 3.99353 21.783 4.07565 21.4737L6.04065 14.3357L0.736649 9.08274C0.51353 8.86161 0.439423 8.5309 0.546845 8.2357C0.654268 7.9405 0.923593 7.73476 1.23665 7.70874L7.67665 7.07074L11.0176 0.445744C11.1577 0.172129 11.4393 0 11.7466 0C12.054 0 12.3356 0.172129 12.4756 0.445744Z" fill="#007EC3"/>
</svg>
